<svg version="1.1" xmlns="http://www.w3.org/2000/svg" xmlns:xlink="http://www.w3.org/1999/xlink" width="1092" height="756"><defs/><g><g transform="translate(-14,-22) scale(1,1)"><rect fill="#C0C0C0" stroke="none" x="31" y="39" width="428.8" height="15" opacity="0.2"/></g><g transform="translate(-14,-22) scale(1,1)"><rect fill="#C0C0C0" stroke="none" x="31" y="53" width="1072" height="722" opacity="0.2"/></g><g transform="translate(-14,-22) scale(1,1)"><rect fill="#ffffff" stroke="none" x="24" y="47" width="1072" height="721"/></g><g transform="translate(-14,-22) scale(1,1)"><path fill="none" stroke="#000000" d="M 24 47 L 1096 47 L 1096 768 L 24 768 L 24 47 Z Z" stroke-miterlimit="10"/></g><g transform="translate(-14,-22) scale(1,1)"><rect fill="#ffffff" stroke="none" x="24" y="32" width="428.8" height="15"/></g><g transform="translate(-14,-22) scale(1,1)"><path fill="none" stroke="#000000" d="M 24 32 L 452.8 32 L 452.8 47 L 24 47 L 24 32 Z Z" stroke-miterlimit="10"/></g><g transform="translate(-14,-22) scale(1,1)"><rect fill="#ffffff" stroke="none" x="24" y="46" width="1072" height="722"/></g><g transform="translate(-14,-22) scale(1,1)"><path fill="none" stroke="#000000" d="M 24 46 L 1096 46 L 1096 768 L 24 768 L 24 46 Z Z" stroke-miterlimit="10"/></g><g transform="translate(-14,-22) scale(1,1)"><g><path fill="none" stroke="none"/><text fill="#000000" stroke="none" font-family="Arial" font-size="13px" font-style="normal" font-weight="bold" text-decoration="none" x="539" y="65">Server</text></g></g><g transform="translate(-14,-22) scale(1,1)"><rect fill="#C0C0C0" stroke="none" x="391" y="455" width="258.6787109375" height="130" opacity="0.2"/></g><g transform="translate(-14,-22) scale(1,1)"><rect fill="#ffffff" stroke="none" x="384" y="448" width="258.6787109375" height="130"/></g><g transform="translate(-14,-22) scale(1,1)"><path fill="none" stroke="#000000" d="M 384 448 L 642.6787109375 448 L 642.6787109375 578 L 384 578 L 384 448 Z Z" stroke-miterlimit="10"/></g><g transform="translate(-14,-22) scale(1,1)"><path fill="none" stroke="#000000" d="M 384 473 L 642.6787109375 473" stroke-miterlimit="10"/></g><g transform="translate(-14,-22) scale(1,1)"><path fill="none" stroke="#000000" d="M 384 556 L 642.6787109375 556" stroke-miterlimit="10"/></g><g transform="translate(-14,-22) scale(1,1)"><g><path fill="none" stroke="none"/><text fill="#000000" stroke="none" font-family="Arial" font-size="13px" font-style="normal" font-weight="bold" text-decoration="none" x="452.83935546875" y="466">ChangeWarehouse</text></g></g><g transform="translate(-14,-22) scale(1,1)"><g><path fill="none" stroke="none"/><text fill="#000000" stroke="none" font-family="Arial" font-size="13px" font-style="normal" font-weight="normal" text-decoration="none" x="389" y="489">-shelf1: ResourceType</text></g></g><g transform="translate(-14,-22) scale(1,1)"><g><path fill="none" stroke="none"/><text fill="#000000" stroke="none" font-family="Arial" font-size="13px" font-style="normal" font-weight="normal" text-decoration="none" x="389" y="504">-shelf2: &lt;ResourceType Integer&gt;</text></g></g><g transform="translate(-14,-22) scale(1,1)"><g><path fill="none" stroke="none"/><text fill="#000000" stroke="none" font-family="Arial" font-size="13px" font-style="normal" font-weight="normal" text-decoration="none" x="389" y="519">-shelf3: &lt;ResourceType Integer&gt;</text></g></g><g transform="translate(-14,-22) scale(1,1)"><g><path fill="none" stroke="none"/><text fill="#000000" stroke="none" font-family="Arial" font-size="13px" font-style="normal" font-weight="normal" text-decoration="none" x="389" y="534">-specialDeposit1: &lt;ResourceType Integer&gt;</text></g></g><g transform="translate(-14,-22) scale(1,1)"><g><path fill="none" stroke="none"/><text fill="#000000" stroke="none" font-family="Arial" font-size="13px" font-style="normal" font-weight="normal" text-decoration="none" x="389" y="549">-specialDeposit2: &lt;ResourceType Integer&gt;</text></g></g><g transform="translate(-14,-22) scale(1,1)"><g><path fill="none" stroke="none"/><text fill="#000000" stroke="none" font-family="Arial" font-size="13px" font-style="normal" font-weight="normal" text-decoration="none" x="389" y="572">+getters()</text></g></g><g transform="translate(-14,-22) scale(1,1)"><rect fill="#C0C0C0" stroke="none" x="799" y="311" width="258.6787109375" height="115" opacity="0.2"/></g><g transform="translate(-14,-22) scale(1,1)"><rect fill="#ffffff" stroke="none" x="792" y="304" width="258.6787109375" height="115"/></g><g transform="translate(-14,-22) scale(1,1)"><path fill="none" stroke="#000000" d="M 792 304 L 1050.6787109375 304 L 1050.6787109375 419 L 792 419 L 792 304 Z Z" stroke-miterlimit="10"/></g><g transform="translate(-14,-22) scale(1,1)"><path fill="none" stroke="#000000" d="M 792 329 L 1050.6787109375 329" stroke-miterlimit="10"/></g><g transform="translate(-14,-22) scale(1,1)"><path fill="none" stroke="#000000" d="M 792 397 L 1050.6787109375 397" stroke-miterlimit="10"/></g><g transform="translate(-14,-22) scale(1,1)"><g><path fill="none" stroke="none"/><text fill="#000000" stroke="none" font-family="Arial" font-size="13px" font-style="normal" font-weight="bold" text-decoration="none" x="865.33935546875" y="322">ChangeFaithtrack</text></g></g><g transform="translate(-14,-22) scale(1,1)"><g><path fill="none" stroke="none"/><text fill="#000000" stroke="none" font-family="Arial" font-size="13px" font-style="normal" font-weight="normal" text-decoration="none" x="797" y="345">-pos: int</text></g></g><g transform="translate(-14,-22) scale(1,1)"><g><path fill="none" stroke="none"/><text fill="#000000" stroke="none" font-family="Arial" font-size="13px" font-style="normal" font-weight="normal" text-decoration="none" x="797" y="360">-tile1: String</text></g></g><g transform="translate(-14,-22) scale(1,1)"><g><path fill="none" stroke="none"/><text fill="#000000" stroke="none" font-family="Arial" font-size="13px" font-style="normal" font-weight="normal" text-decoration="none" x="797" y="375">-tile2: String</text></g></g><g transform="translate(-14,-22) scale(1,1)"><g><path fill="none" stroke="none"/><text fill="#000000" stroke="none" font-family="Arial" font-size="13px" font-style="normal" font-weight="normal" text-decoration="none" x="797" y="390">-tile3: String</text></g></g><g transform="translate(-14,-22) scale(1,1)"><g><path fill="none" stroke="none"/><text fill="#000000" stroke="none" font-family="Arial" font-size="13px" font-style="normal" font-weight="normal" text-decoration="none" x="797" y="413">+getters()</text></g></g><g transform="translate(-14,-22) scale(1,1)"><rect fill="#C0C0C0" stroke="none" x="42" y="487" width="258.6787109375" height="70" opacity="0.2"/></g><g transform="translate(-14,-22) scale(1,1)"><rect fill="#ffffff" stroke="none" x="35" y="480" width="258.6787109375" height="70"/></g><g transform="translate(-14,-22) scale(1,1)"><path fill="none" stroke="#000000" d="M 35 480 L 293.6787109375 480 L 293.6787109375 550 L 35 550 L 35 480 Z Z" stroke-miterlimit="10"/></g><g transform="translate(-14,-22) scale(1,1)"><path fill="none" stroke="#000000" d="M 35 505 L 293.6787109375 505" stroke-miterlimit="10"/></g><g transform="translate(-14,-22) scale(1,1)"><path fill="none" stroke="#000000" d="M 35 528 L 293.6787109375 528" stroke-miterlimit="10"/></g><g transform="translate(-14,-22) scale(1,1)"><g><path fill="none" stroke="none"/><text fill="#000000" stroke="none" font-family="Arial" font-size="13px" font-style="normal" font-weight="bold" text-decoration="none" x="105.33935546875" y="498">ChangeBlackCross</text></g></g><g transform="translate(-14,-22) scale(1,1)"><g><path fill="none" stroke="none"/><text fill="#000000" stroke="none" font-family="Arial" font-size="13px" font-style="normal" font-weight="normal" text-decoration="none" x="40" y="521">-position: int</text></g></g><g transform="translate(-14,-22) scale(1,1)"><g><path fill="none" stroke="none"/><text fill="#000000" stroke="none" font-family="Arial" font-size="13px" font-style="normal" font-weight="normal" text-decoration="none" x="40" y="544">+getPosition(): int</text></g></g><g transform="translate(-14,-22) scale(1,1)"><rect fill="#C0C0C0" stroke="none" x="55" y="175" width="244.57421875" height="85" opacity="0.2"/></g><g transform="translate(-14,-22) scale(1,1)"><rect fill="#ffffff" stroke="none" x="48" y="168" width="244.57421875" height="85"/></g><g transform="translate(-14,-22) scale(1,1)"><path fill="none" stroke="#000000" d="M 48 168 L 292.57421875 168 L 292.57421875 253 L 48 253 L 48 168 Z Z" stroke-miterlimit="10"/></g><g transform="translate(-14,-22) scale(1,1)"><path fill="none" stroke="#000000" d="M 48 193 L 292.57421875 193" stroke-miterlimit="10"/></g><g transform="translate(-14,-22) scale(1,1)"><path fill="none" stroke="#000000" d="M 48 231 L 292.57421875 231" stroke-miterlimit="10"/></g><g transform="translate(-14,-22) scale(1,1)"><g><path fill="none" stroke="none"/><text fill="#000000" stroke="none" font-family="Arial" font-size="13px" font-style="normal" font-weight="bold" text-decoration="none" x="124.287109375" y="186">ChangeMarket</text></g></g><g transform="translate(-14,-22) scale(1,1)"><g><path fill="none" stroke="none"/><text fill="#000000" stroke="none" font-family="Arial" font-size="13px" font-style="normal" font-weight="normal" text-decoration="none" x="53" y="209">-slide: MarbleColor</text></g></g><g transform="translate(-14,-22) scale(1,1)"><g><path fill="none" stroke="none"/><text fill="#000000" stroke="none" font-family="Arial" font-size="13px" font-style="normal" font-weight="normal" text-decoration="none" x="53" y="224">-grid: List&lt;List&lt;MarbleColor&gt;&gt;</text></g></g><g transform="translate(-14,-22) scale(1,1)"><g><path fill="none" stroke="none"/><text fill="#000000" stroke="none" font-family="Arial" font-size="13px" font-style="normal" font-weight="normal" text-decoration="none" x="53" y="247">+getters()</text></g></g><g transform="translate(-14,-22) scale(1,1)"><rect fill="#C0C0C0" stroke="none" x="799" y="631" width="244.57421875" height="100" opacity="0.2"/></g><g transform="translate(-14,-22) scale(1,1)"><rect fill="#ffffff" stroke="none" x="792" y="624" width="244.57421875" height="100"/></g><g transform="translate(-14,-22) scale(1,1)"><path fill="none" stroke="#000000" d="M 792 624 L 1036.57421875 624 L 1036.57421875 724 L 792 724 L 792 624 Z Z" stroke-miterlimit="10"/></g><g transform="translate(-14,-22) scale(1,1)"><path fill="none" stroke="#000000" d="M 792 649 L 1036.57421875 649" stroke-miterlimit="10"/></g><g transform="translate(-14,-22) scale(1,1)"><path fill="none" stroke="#000000" d="M 792 702 L 1036.57421875 702" stroke-miterlimit="10"/></g><g transform="translate(-14,-22) scale(1,1)"><g><path fill="none" stroke="none"/><text fill="#000000" stroke="none" font-family="Arial" font-size="13px" font-style="normal" font-weight="bold" text-decoration="none" x="852.787109375" y="642">ChangeActiveEffect</text></g></g><g transform="translate(-14,-22) scale(1,1)"><g><path fill="none" stroke="none"/><text fill="#000000" stroke="none" font-family="Arial" font-size="13px" font-style="normal" font-weight="normal" text-decoration="none" x="797" y="665">-discounts: List&lt;ReosurceType&gt;</text></g></g><g transform="translate(-14,-22) scale(1,1)"><g><path fill="none" stroke="none"/><text fill="#000000" stroke="none" font-family="Arial" font-size="13px" font-style="normal" font-weight="normal" text-decoration="none" x="797" y="680">-conversions: List&lt;ReosurceType&gt;</text></g></g><g transform="translate(-14,-22) scale(1,1)"><g><path fill="none" stroke="none"/><text fill="#000000" stroke="none" font-family="Arial" font-size="13px" font-style="normal" font-weight="normal" text-decoration="none" x="797" y="695">-leaderProductions: List&lt;ReosurceType&gt;</text></g></g><g transform="translate(-14,-22) scale(1,1)"><g><path fill="none" stroke="none"/><text fill="#000000" stroke="none" font-family="Arial" font-size="13px" font-style="normal" font-weight="normal" text-decoration="none" x="797" y="718">+getters()</text></g></g><g transform="translate(-14,-22) scale(1,1)"><rect fill="#C0C0C0" stroke="none" x="407" y="311" width="244.57421875" height="115" opacity="0.2"/></g><g transform="translate(-14,-22) scale(1,1)"><rect fill="#ffffff" stroke="none" x="400" y="304" width="244.57421875" height="115"/></g><g transform="translate(-14,-22) scale(1,1)"><path fill="none" stroke="#000000" d="M 400 304 L 644.57421875 304 L 644.57421875 419 L 400 419 L 400 304 Z Z" stroke-miterlimit="10"/></g><g transform="translate(-14,-22) scale(1,1)"><path fill="none" stroke="#000000" d="M 400 329 L 644.57421875 329" stroke-miterlimit="10"/></g><g transform="translate(-14,-22) scale(1,1)"><path fill="none" stroke="#000000" d="M 400 397 L 644.57421875 397" stroke-miterlimit="10"/></g><g transform="translate(-14,-22) scale(1,1)"><g><path fill="none" stroke="none"/><text fill="#000000" stroke="none" font-family="Arial" font-size="13px" font-style="normal" font-weight="bold" text-decoration="none" x="464.787109375" y="322">ChangeStrongbox</text></g></g><g transform="translate(-14,-22) scale(1,1)"><g><path fill="none" stroke="none"/><text fill="#000000" stroke="none" font-family="Arial" font-size="13px" font-style="normal" font-weight="normal" text-decoration="none" x="405" y="345">-coin: int</text></g></g><g transform="translate(-14,-22) scale(1,1)"><g><path fill="none" stroke="none"/><text fill="#000000" stroke="none" font-family="Arial" font-size="13px" font-style="normal" font-weight="normal" text-decoration="none" x="405" y="360">-stone: int</text></g></g><g transform="translate(-14,-22) scale(1,1)"><g><path fill="none" stroke="none"/><text fill="#000000" stroke="none" font-family="Arial" font-size="13px" font-style="normal" font-weight="normal" text-decoration="none" x="405" y="375">-servant: int</text></g></g><g transform="translate(-14,-22) scale(1,1)"><g><path fill="none" stroke="none"/><text fill="#000000" stroke="none" font-family="Arial" font-size="13px" font-style="normal" font-weight="normal" text-decoration="none" x="405" y="390">-shield: int</text></g></g><g transform="translate(-14,-22) scale(1,1)"><g><path fill="none" stroke="none"/><text fill="#000000" stroke="none" font-family="Arial" font-size="13px" font-style="normal" font-weight="normal" text-decoration="none" x="405" y="413">+getters()</text></g></g><g transform="translate(-14,-22) scale(1,1)"><rect fill="#C0C0C0" stroke="none" x="799" y="471" width="244.57421875" height="100" opacity="0.2"/></g><g transform="translate(-14,-22) scale(1,1)"><rect fill="#ffffff" stroke="none" x="792" y="464" width="244.57421875" height="100"/></g><g transform="translate(-14,-22) scale(1,1)"><path fill="none" stroke="#000000" d="M 792 464 L 1036.57421875 464 L 1036.57421875 564 L 792 564 L 792 464 Z Z" stroke-miterlimit="10"/></g><g transform="translate(-14,-22) scale(1,1)"><path fill="none" stroke="#000000" d="M 792 489 L 1036.57421875 489" stroke-miterlimit="10"/></g><g transform="translate(-14,-22) scale(1,1)"><path fill="none" stroke="#000000" d="M 792 542 L 1036.57421875 542" stroke-miterlimit="10"/></g><g transform="translate(-14,-22) scale(1,1)"><g><path fill="none" stroke="none"/><text fill="#000000" stroke="none" font-family="Arial" font-size="13px" font-style="normal" font-weight="bold" text-decoration="none" x="850.287109375" y="482">ChangeDevCardSlot</text></g></g><g transform="translate(-14,-22) scale(1,1)"><g><path fill="none" stroke="none"/><text fill="#000000" stroke="none" font-family="Arial" font-size="13px" font-style="normal" font-weight="normal" text-decoration="none" x="797" y="505">-slot1: List&lt;String&gt;</text></g></g><g transform="translate(-14,-22) scale(1,1)"><g><path fill="none" stroke="none"/><text fill="#000000" stroke="none" font-family="Arial" font-size="13px" font-style="normal" font-weight="normal" text-decoration="none" x="797" y="520">-slot2: List&lt;String&gt;</text></g></g><g transform="translate(-14,-22) scale(1,1)"><g><path fill="none" stroke="none"/><text fill="#000000" stroke="none" font-family="Arial" font-size="13px" font-style="normal" font-weight="normal" text-decoration="none" x="797" y="535">-slot3: List&lt;String&gt;</text></g></g><g transform="translate(-14,-22) scale(1,1)"><g><path fill="none" stroke="none"/><text fill="#000000" stroke="none" font-family="Arial" font-size="13px" font-style="normal" font-weight="normal" text-decoration="none" x="797" y="558">+getters()</text></g></g><g transform="translate(-14,-22) scale(1,1)"><rect fill="#C0C0C0" stroke="none" x="55" y="431" width="244.57421875" height="24" opacity="0.2"/></g><g transform="translate(-14,-22) scale(1,1)"><rect fill="#ffffff" stroke="none" x="48" y="424" width="244.57421875" height="24"/></g><g transform="translate(-14,-22) scale(1,1)"><path fill="none" stroke="#000000" d="M 48 424 L 292.57421875 424 L 292.57421875 448 L 48 448 L 48 424 Z Z" stroke-miterlimit="10"/></g><g transform="translate(-14,-22) scale(1,1)"><g><path fill="none" stroke="none"/><text fill="#000000" stroke="none" font-family="Arial" font-size="13px" font-style="normal" font-weight="bold" text-decoration="none" x="153.787109375" y="442">Done</text></g></g><g transform="translate(-14,-22) scale(1,1)"><rect fill="#C0C0C0" stroke="none" x="42" y="295" width="258.6787109375" height="100" opacity="0.2"/></g><g transform="translate(-14,-22) scale(1,1)"><rect fill="#ffffff" stroke="none" x="35" y="288" width="258.6787109375" height="100"/></g><g transform="translate(-14,-22) scale(1,1)"><path fill="none" stroke="#000000" d="M 35 288 L 293.6787109375 288 L 293.6787109375 388 L 35 388 L 35 288 Z Z" stroke-miterlimit="10"/></g><g transform="translate(-14,-22) scale(1,1)"><path fill="none" stroke="#000000" d="M 35 313 L 293.6787109375 313" stroke-miterlimit="10"/></g><g transform="translate(-14,-22) scale(1,1)"><path fill="none" stroke="#000000" d="M 35 366 L 293.6787109375 366" stroke-miterlimit="10"/></g><g transform="translate(-14,-22) scale(1,1)"><g><path fill="none" stroke="none"/><text fill="#000000" stroke="none" font-family="Arial" font-size="13px" font-style="normal" font-weight="bold" text-decoration="none" x="99.33935546875" y="306">ChangeDevCardGrid</text></g></g><g transform="translate(-14,-22) scale(1,1)"><g><path fill="none" stroke="none"/><text fill="#000000" stroke="none" font-family="Arial" font-size="13px" font-style="normal" font-weight="normal" text-decoration="none" x="40" y="329">-typeSelection: CardType</text></g></g><g transform="translate(-14,-22) scale(1,1)"><g><path fill="none" stroke="none"/><text fill="#000000" stroke="none" font-family="Arial" font-size="13px" font-style="normal" font-weight="normal" text-decoration="none" x="40" y="344">-levelSelection: Integer</text></g></g><g transform="translate(-14,-22) scale(1,1)"><g><path fill="none" stroke="none"/><text fill="#000000" stroke="none" font-family="Arial" font-size="13px" font-style="normal" font-weight="normal" text-decoration="none" x="40" y="359">-grid: Map&lt;CardType List&lt;String&gt;&gt;</text></g></g><g transform="translate(-14,-22) scale(1,1)"><g><path fill="none" stroke="none"/><text fill="#000000" stroke="none" font-family="Arial" font-size="13px" font-style="normal" font-weight="normal" text-decoration="none" x="40" y="382">+getters()</text></g></g><g transform="translate(-14,-22) scale(1,1)"><rect fill="#C0C0C0" stroke="none" x="391" y="639" width="258.6787109375" height="100" opacity="0.2"/></g><g transform="translate(-14,-22) scale(1,1)"><rect fill="#ffffff" stroke="none" x="384" y="632" width="258.6787109375" height="100"/></g><g transform="translate(-14,-22) scale(1,1)"><path fill="none" stroke="#000000" d="M 384 632 L 642.6787109375 632 L 642.6787109375 732 L 384 732 L 384 632 Z Z" stroke-miterlimit="10"/></g><g transform="translate(-14,-22) scale(1,1)"><path fill="none" stroke="#000000" d="M 384 657 L 642.6787109375 657" stroke-miterlimit="10"/></g><g transform="translate(-14,-22) scale(1,1)"><path fill="none" stroke="#000000" d="M 384 710 L 642.6787109375 710" stroke-miterlimit="10"/></g><g transform="translate(-14,-22) scale(1,1)"><g><path fill="none" stroke="none"/><text fill="#000000" stroke="none" font-family="Arial" font-size="13px" font-style="normal" font-weight="bold" text-decoration="none" x="468.33935546875" y="650">ChangePlayer</text></g></g><g transform="translate(-14,-22) scale(1,1)"><g><path fill="none" stroke="none"/><text fill="#000000" stroke="none" font-family="Arial" font-size="13px" font-style="normal" font-weight="normal" text-decoration="none" x="389" y="673">-debts: Map&lt;ResourceType Integer&gt;</text></g></g><g transform="translate(-14,-22) scale(1,1)"><g><path fill="none" stroke="none"/><text fill="#000000" stroke="none" font-family="Arial" font-size="13px" font-style="normal" font-weight="normal" text-decoration="none" x="389" y="688">-credits: Map&lt;ResourceType Integer&gt;</text></g></g><g transform="translate(-14,-22) scale(1,1)"><g><path fill="none" stroke="none"/><text fill="#000000" stroke="none" font-family="Arial" font-size="13px" font-style="normal" font-weight="normal" text-decoration="none" x="389" y="703">-leaders: Map&lt;String String&gt;</text></g></g><g transform="translate(-14,-22) scale(1,1)"><g><path fill="none" stroke="none"/><text fill="#000000" stroke="none" font-family="Arial" font-size="13px" font-style="normal" font-weight="normal" text-decoration="none" x="389" y="726">+getters()</text></g></g><g transform="translate(-14,-22) scale(1,1)"><path fill="none" stroke="#000000" d="M 293 224 L 320 224 L 320 142" stroke-miterlimit="10"/></g><g transform="translate(-14,-22) scale(1,1)"><path fill="#FFFFFF" stroke="none" d="M 328.419035512032 162.3253497152483 L 320 142 L 311.580964487968 162.3253497152483"/></g><g transform="translate(-14,-22) scale(1,1)"><path fill="none" stroke="#000000" d="M 328.419035512032 162.3253497152483 L 320 142 L 311.580964487968 162.3253497152483 L 328.419035512032 162.3253497152483" stroke-miterlimit="10"/></g><g transform="translate(-14,-22) scale(1,1)"><path fill="none" stroke="#000000" d="M 294 330 L 320 330 L 320 142" stroke-miterlimit="10"/></g><g transform="translate(-14,-22) scale(1,1)"><path fill="#FFFFFF" stroke="none" d="M 328.419035512032 162.3253497152483 L 320 142 L 311.580964487968 162.3253497152483"/></g><g transform="translate(-14,-22) scale(1,1)"><path fill="none" stroke="#000000" d="M 328.419035512032 162.3253497152483 L 320 142 L 311.580964487968 162.3253497152483 L 328.419035512032 162.3253497152483" stroke-miterlimit="10"/></g><g transform="translate(-14,-22) scale(1,1)"><path fill="none" stroke="#000000" d="M 294 515 L 320 515 L 320 142" stroke-miterlimit="10"/></g><g transform="translate(-14,-22) scale(1,1)"><path fill="#FFFFFF" stroke="none" d="M 328.419035512032 162.3253497152483 L 320 142 L 311.580964487968 162.3253497152483"/></g><g transform="translate(-14,-22) scale(1,1)"><path fill="none" stroke="#000000" d="M 328.419035512032 162.3253497152483 L 320 142 L 311.580964487968 162.3253497152483 L 328.419035512032 162.3253497152483" stroke-miterlimit="10"/></g><g transform="translate(-14,-22) scale(1,1)"><path fill="none" stroke="#000000" d="M 293 436 L 320 436 L 320 142" stroke-miterlimit="10"/></g><g transform="translate(-14,-22) scale(1,1)"><path fill="#FFFFFF" stroke="none" d="M 328.419035512032 162.3253497152483 L 320 142 L 311.580964487968 162.3253497152483"/></g><g transform="translate(-14,-22) scale(1,1)"><path fill="none" stroke="#000000" d="M 328.419035512032 162.3253497152483 L 320 142 L 311.580964487968 162.3253497152483 L 328.419035512032 162.3253497152483" stroke-miterlimit="10"/></g><g transform="translate(-14,-22) scale(1,1)"><rect fill="#C0C0C0" stroke="none" x="267" y="79" width="112.68896484375" height="70" opacity="0.2"/></g><g transform="translate(-14,-22) scale(1,1)"><rect fill="#ffffff" stroke="none" x="260" y="72" width="112.68896484375" height="70"/></g><g transform="translate(-14,-22) scale(1,1)"><path fill="none" stroke="#000000" d="M 260 72 L 372.68896484375 72 L 372.68896484375 142 L 260 142 L 260 72 Z Z" stroke-miterlimit="10"/></g><g transform="translate(-14,-22) scale(1,1)"><path fill="none" stroke="#000000" d="M 260 97 L 372.68896484375 97" stroke-miterlimit="10"/></g><g transform="translate(-14,-22) scale(1,1)"><path fill="none" stroke="#000000" d="M 260 120 L 372.68896484375 120" stroke-miterlimit="10"/></g><g transform="translate(-14,-22) scale(1,1)"><g><path fill="none" stroke="none"/><text fill="#000000" stroke="none" font-family="Arial" font-size="13px" font-style="italic" font-weight="bold" text-decoration="none" x="269.844482421875" y="89.5">ServerMessage</text></g></g><g transform="translate(-14,-22) scale(1,1)"><g><path fill="none" stroke="none"/><text fill="#000000" stroke="none" font-family="Arial" font-size="13px" font-style="normal" font-weight="normal" text-decoration="none" x="265" y="113">-type: String</text></g></g><g transform="translate(-14,-22) scale(1,1)"><g><path fill="none" stroke="none"/><text fill="#000000" stroke="none" font-family="Arial" font-size="13px" font-style="normal" font-weight="normal" text-decoration="none" x="265" y="136">+getType(): String</text></g></g><g transform="translate(-14,-22) scale(1,1)"><path fill="none" stroke="#000000" d="M 298 708 L 320 708 L 320 142" stroke-miterlimit="10"/></g><g transform="translate(-14,-22) scale(1,1)"><path fill="#FFFFFF" stroke="none" d="M 328.419035512032 162.3253497152483 L 320 142 L 311.580964487968 162.3253497152483"/></g><g transform="translate(-14,-22) scale(1,1)"><path fill="none" stroke="#000000" d="M 328.419035512032 162.3253497152483 L 320 142 L 311.580964487968 162.3253497152483 L 328.419035512032 162.3253497152483" stroke-miterlimit="10"/></g><g transform="translate(-14,-22) scale(1,1)"><rect fill="#C0C0C0" stroke="none" x="167" y="679" width="138" height="72" opacity="0.2"/></g><g transform="translate(-14,-22) scale(1,1)"><rect fill="#ffffff" stroke="none" x="160" y="672" width="138" height="72"/></g><g transform="translate(-14,-22) scale(1,1)"><path fill="none" stroke="#000000" d="M 160 672 L 298 672 L 298 744 L 160 744 L 160 672 Z Z" stroke-miterlimit="10"/></g><g transform="translate(-14,-22) scale(1,1)"><path fill="none" stroke="#000000" d="M 160 697 L 298 697" stroke-miterlimit="10"/></g><g transform="translate(-14,-22) scale(1,1)"><path fill="none" stroke="#000000" d="M 160 720 L 298 720" stroke-miterlimit="10"/></g><g transform="translate(-14,-22) scale(1,1)"><g><path fill="none" stroke="none"/><text fill="#000000" stroke="none" font-family="Arial" font-size="13px" font-style="normal" font-weight="bold" text-decoration="none" x="213.5" y="690">Error</text></g></g><g transform="translate(-14,-22) scale(1,1)"><g><path fill="none" stroke="none"/><text fill="#000000" stroke="none" font-family="Arial" font-size="13px" font-style="normal" font-weight="normal" text-decoration="none" x="165" y="713">-message: String</text></g></g><g transform="translate(-14,-22) scale(1,1)"><g><path fill="none" stroke="none"/><text fill="#000000" stroke="none" font-family="Arial" font-size="13px" font-style="normal" font-weight="normal" text-decoration="none" x="165" y="736">+getMessage(): String</text></g></g><g transform="translate(-14,-22) scale(1,1)"><path fill="none" stroke="#000000" d="M 295 611 L 320 611 L 320 142" stroke-miterlimit="10"/></g><g transform="translate(-14,-22) scale(1,1)"><path fill="#FFFFFF" stroke="none" d="M 328.419035512032 162.3253497152483 L 320 142 L 311.580964487968 162.3253497152483"/></g><g transform="translate(-14,-22) scale(1,1)"><path fill="none" stroke="#000000" d="M 328.419035512032 162.3253497152483 L 320 142 L 311.580964487968 162.3253497152483 L 328.419035512032 162.3253497152483" stroke-miterlimit="10"/></g><g transform="translate(-14,-22) scale(1,1)"><rect fill="#C0C0C0" stroke="none" x="663" y="215" width="123" height="70" opacity="0.2"/></g><g transform="translate(-14,-22) scale(1,1)"><rect fill="#ffffff" stroke="none" x="656" y="208" width="123" height="70"/></g><g transform="translate(-14,-22) scale(1,1)"><path fill="none" stroke="#000000" d="M 656 208 L 779 208 L 779 278 L 656 278 L 656 208 Z Z" stroke-miterlimit="10"/></g><g transform="translate(-14,-22) scale(1,1)"><path fill="none" stroke="#000000" d="M 656 233 L 779 233" stroke-miterlimit="10"/></g><g transform="translate(-14,-22) scale(1,1)"><path fill="none" stroke="#000000" d="M 656 256 L 779 256" stroke-miterlimit="10"/></g><g transform="translate(-14,-22) scale(1,1)"><g><path fill="none" stroke="none"/><text fill="#000000" stroke="none" font-family="Arial" font-size="13px" font-style="italic" font-weight="bold" text-decoration="none" x="675" y="225.5">PlayerChange</text></g></g><g transform="translate(-14,-22) scale(1,1)"><g><path fill="none" stroke="none"/><text fill="#000000" stroke="none" font-family="Arial" font-size="13px" font-style="normal" font-weight="normal" text-decoration="none" x="661" y="249">-client: Integer</text></g></g><g transform="translate(-14,-22) scale(1,1)"><g><path fill="none" stroke="none"/><text fill="#000000" stroke="none" font-family="Arial" font-size="13px" font-style="normal" font-weight="normal" text-decoration="none" x="661" y="272">+getClient(): Integer</text></g></g><g transform="translate(-14,-22) scale(1,1)"><path fill="none" stroke="#000000" d="M 720 208 L 720 112 L 373 112" stroke-miterlimit="10"/></g><g transform="translate(-14,-22) scale(1,1)"><path fill="#FFFFFF" stroke="none" d="M 393.3253497152483 103.58096448796803 L 373 112 L 393.3253497152483 120.41903551203197"/></g><g transform="translate(-14,-22) scale(1,1)"><path fill="none" stroke="#000000" d="M 393.3253497152483 103.58096448796803 L 373 112 L 393.3253497152483 120.41903551203197 L 393.3253497152483 103.58096448796803" stroke-miterlimit="10"/></g><g transform="translate(-14,-22) scale(1,1)"><rect fill="#C0C0C0" stroke="none" x="167" y="583" width="135" height="70" opacity="0.2"/></g><g transform="translate(-14,-22) scale(1,1)"><rect fill="#ffffff" stroke="none" x="160" y="576" width="135" height="70"/></g><g transform="translate(-14,-22) scale(1,1)"><path fill="none" stroke="#000000" d="M 160 576 L 295 576 L 295 646 L 160 646 L 160 576 Z Z" stroke-miterlimit="10"/></g><g transform="translate(-14,-22) scale(1,1)"><path fill="none" stroke="#000000" d="M 160 601 L 295 601" stroke-miterlimit="10"/></g><g transform="translate(-14,-22) scale(1,1)"><path fill="none" stroke="#000000" d="M 160 624 L 295 624" stroke-miterlimit="10"/></g><g transform="translate(-14,-22) scale(1,1)"><g><path fill="none" stroke="none"/><text fill="#000000" stroke="none" font-family="Arial" font-size="13px" font-style="normal" font-weight="bold" text-decoration="none" x="164.5" y="594">ChangeActiveToken</text></g></g><g transform="translate(-14,-22) scale(1,1)"><g><path fill="none" stroke="none"/><text fill="#000000" stroke="none" font-family="Arial" font-size="13px" font-style="normal" font-weight="normal" text-decoration="none" x="165" y="617">-token: String</text></g></g><g transform="translate(-14,-22) scale(1,1)"><g><path fill="none" stroke="none"/><text fill="#000000" stroke="none" font-family="Arial" font-size="13px" font-style="normal" font-weight="normal" text-decoration="none" x="165" y="640">+getToken(): String</text></g></g><g transform="translate(-14,-22) scale(1,1)"><path fill="none" stroke="#000000" d="M 792 361 L 720 361 L 720 278" stroke-miterlimit="10"/></g><g transform="translate(-14,-22) scale(1,1)"><path fill="#FFFFFF" stroke="none" d="M 728.419035512032 298.3253497152483 L 720 278 L 711.580964487968 298.3253497152483"/></g><g transform="translate(-14,-22) scale(1,1)"><path fill="none" stroke="#000000" d="M 728.419035512032 298.3253497152483 L 720 278 L 711.580964487968 298.3253497152483 L 728.419035512032 298.3253497152483" stroke-miterlimit="10"/></g><g transform="translate(-14,-22) scale(1,1)"><path fill="none" stroke="#000000" d="M 645 361 L 720 361 L 720 278" stroke-miterlimit="10"/></g><g transform="translate(-14,-22) scale(1,1)"><path fill="#FFFFFF" stroke="none" d="M 728.419035512032 298.3253497152483 L 720 278 L 711.580964487968 298.3253497152483"/></g><g transform="translate(-14,-22) scale(1,1)"><path fill="none" stroke="#000000" d="M 728.419035512032 298.3253497152483 L 720 278 L 711.580964487968 298.3253497152483 L 728.419035512032 298.3253497152483" stroke-miterlimit="10"/></g><g transform="translate(-14,-22) scale(1,1)"><path fill="none" stroke="#000000" d="M 643 520 L 720 520 L 720 278" stroke-miterlimit="10"/></g><g transform="translate(-14,-22) scale(1,1)"><path fill="#FFFFFF" stroke="none" d="M 728.419035512032 298.3253497152483 L 720 278 L 711.580964487968 298.3253497152483"/></g><g transform="translate(-14,-22) scale(1,1)"><path fill="none" stroke="#000000" d="M 728.419035512032 298.3253497152483 L 720 278 L 711.580964487968 298.3253497152483 L 728.419035512032 298.3253497152483" stroke-miterlimit="10"/></g><g transform="translate(-14,-22) scale(1,1)"><path fill="none" stroke="#000000" d="M 792 520 L 720 520 L 720 278" stroke-miterlimit="10"/></g><g transform="translate(-14,-22) scale(1,1)"><path fill="#FFFFFF" stroke="none" d="M 728.419035512032 298.3253497152483 L 720 278 L 711.580964487968 298.3253497152483"/></g><g transform="translate(-14,-22) scale(1,1)"><path fill="none" stroke="#000000" d="M 728.419035512032 298.3253497152483 L 720 278 L 711.580964487968 298.3253497152483 L 728.419035512032 298.3253497152483" stroke-miterlimit="10"/></g><g transform="translate(-14,-22) scale(1,1)"><path fill="none" stroke="#000000" d="M 643 688 L 720 688 L 720 278" stroke-miterlimit="10"/></g><g transform="translate(-14,-22) scale(1,1)"><path fill="#FFFFFF" stroke="none" d="M 728.419035512032 298.3253497152483 L 720 278 L 711.580964487968 298.3253497152483"/></g><g transform="translate(-14,-22) scale(1,1)"><path fill="none" stroke="#000000" d="M 728.419035512032 298.3253497152483 L 720 278 L 711.580964487968 298.3253497152483 L 728.419035512032 298.3253497152483" stroke-miterlimit="10"/></g><g transform="translate(-14,-22) scale(1,1)"><path fill="none" stroke="#000000" d="M 792 688 L 720 688 L 720 278" stroke-miterlimit="10"/></g><g transform="translate(-14,-22) scale(1,1)"><path fill="#FFFFFF" stroke="none" d="M 728.419035512032 298.3253497152483 L 720 278 L 711.580964487968 298.3253497152483"/></g><g transform="translate(-14,-22) scale(1,1)"><path fill="none" stroke="#000000" d="M 728.419035512032 298.3253497152483 L 720 278 L 711.580964487968 298.3253497152483 L 728.419035512032 298.3253497152483" stroke-miterlimit="10"/></g></g></svg>