<svg xmlns="http://www.w3.org/2000/svg" xmlns:xlink="http://www.w3.org/1999/xlink" xmlns:lucid="lucid" width="560" height="439.6"><g transform="translate(-660 -320)" lucid:page-tab-id="0_0"><path d="M959.75 559.75c0 10.9-8.84 19.75-19.75 19.75-10.9 0-19.75-8.84-19.75-19.75 0-10.9 8.84-19.75 19.75-19.75 10.9 0 19.75 8.84 19.75 19.75z" stroke="#3a414a" fill="#fff"/><path d="M940 579.5v47.3a27.6 27.6 0 0 0 4.28 14.76L980 698m-40-63.2L900 698m0-98.75h80" stroke="#3a414a" fill="none"/><path d="M900 548a8 8 0 0 1 8-8h64a8 8 0 0 1 8 8v164a8 8 0 0 1-8 8h-64a8 8 0 0 1-8-8z" fill="none"/><use xlink:href="#a" transform="matrix(1,0,0,1,820,698) translate(42.55 14.4)"/><use xlink:href="#b" transform="matrix(1,0,0,1,820,698) translate(100.5 14.4)"/><use xlink:href="#c" transform="matrix(1,0,0,1,820,698) translate(167.45 14.4)"/><use xlink:href="#d" transform="matrix(1,0,0,1,820,698) translate(79.07499999999999 36)"/><path d="M940 539v-78" stroke="#3a414a" fill="none"/><path d="M940.5 539.56l-.47-.06h-.53v-.5h1zM940 460.5h.5v.5h-1v-.52z" stroke="#3a414a" stroke-width=".05" fill="#3a414a"/><path d="M1020 400c0 33.14-35.82 60-80 60s-80-26.86-80-60 35.82-60 80-60 80 26.86 80 60z" stroke="#3a414a" fill="#fff"/><use xlink:href="#e" transform="matrix(1,0,0,1,860.0000415885319,340) translate(12.12999999999999 63.15)"/><use xlink:href="#f" transform="matrix(1,0,0,1,860.0000415885319,340) translate(71.08 63.15)"/><use xlink:href="#g" transform="matrix(1,0,0,1,860.0000415885319,340) translate(86.08 63.15)"/><path d="M840 500c0 33.14-35.82 60-80 60s-80-26.86-80-60 35.82-60 80-60 80 26.86 80 60z" stroke="#3a414a" fill="#fff"/><use xlink:href="#e" transform="matrix(1,0,0,1,680,440) translate(27.07999999999999 51.9)"/><use xlink:href="#f" transform="matrix(1,0,0,1,680,440) translate(86.03 51.9)"/><use xlink:href="#h" transform="matrix(1,0,0,1,680,440) translate(101.03 51.9)"/><use xlink:href="#i" transform="matrix(1,0,0,1,680,440) translate(29.60499999999999 73.5)"/><use xlink:href="#j" transform="matrix(1,0,0,1,680,440) translate(84.555 73.5)"/><path d="M1200 500c0 33.14-35.82 60-80 60s-80-26.86-80-60 35.82-60 80-60 80 26.86 80 60z" stroke="#3a414a" fill="#fff"/><g><use xlink:href="#e" transform="matrix(1,0,0,1,1040.0000831770637,440) translate(45.529999999999994 29.4)"/><use xlink:href="#k" transform="matrix(1,0,0,1,1040.0000831770637,440) translate(104.48 29.4)"/><use xlink:href="#l" transform="matrix(1,0,0,1,1040.0000831770637,440) translate(41.55499999999999 51)"/><use xlink:href="#m" transform="matrix(1,0,0,1,1040.0000831770637,440) translate(108.45500000000001 51)"/><use xlink:href="#n" transform="matrix(1,0,0,1,1040.0000831770637,440) translate(35.62999999999999 72.60000000000001)"/><use xlink:href="#o" transform="matrix(1,0,0,1,1040.0000831770637,440) translate(100.43 72.60000000000001)"/><use xlink:href="#p" transform="matrix(1,0,0,1,1040.0000831770637,440) translate(58.055 94.20000000000002)"/></g><path d="M940 539v-29a10 10 0 0 0-10-10h-89" stroke="#3a414a" fill="none"/><path d="M940.5 539.56l-.47-.06h-.53v-.5h1zM841 500.5h-.52l.02-.5v-.5h.5z" stroke="#3a414a" stroke-width=".05" fill="#3a414a"/><path d="M940 539v-29a10 10 0 0 1 10-10h89" stroke="#3a414a" fill="none"/><path d="M940.5 539.56l-.47-.06h-.53v-.5h1zM1039.5 500v.5h-.5v-1h.52z" stroke="#3a414a" stroke-width=".05" fill="#3a414a"/><defs><path fill="#3a414a" d="M232-93c-1 65-40 97-104 97C67 4 28-28 28-90v-158h33c8 89-33 224 67 224 102 0 64-133 71-224h33v155" id="q"/><path fill="#3a414a" d="M59-47c-2 24 18 29 38 22v24C64 9 27 4 27-40v-127H5v-23h24l9-43h21v43h35v23H59v120" id="r"/><path fill="#3a414a" d="M100-194c63 0 86 42 84 106H49c0 40 14 67 53 68 26 1 43-12 49-29l28 8c-11 28-37 45-77 45C44 4 14-33 15-96c1-61 26-98 85-98zm52 81c6-60-76-77-97-28-3 7-6 17-6 28h103" id="s"/><path fill="#3a414a" d="M117-194c89-4 53 116 60 194h-32v-121c0-31-8-49-39-48C34-167 62-67 57 0H25l-1-190h30c1 10-1 24 2 32 11-22 29-35 61-36" id="t"/><g id="a"><use transform="matrix(0.05,0,0,0.05,0,0)" xlink:href="#q"/><use transform="matrix(0.05,0,0,0.05,12.950000000000001,0)" xlink:href="#r"/><use transform="matrix(0.05,0,0,0.05,17.950000000000003,0)" xlink:href="#s"/><use transform="matrix(0.05,0,0,0.05,27.950000000000003,0)" xlink:href="#t"/><use transform="matrix(0.05,0,0,0.05,37.95,0)" xlink:href="#r"/><use transform="matrix(0.05,0,0,0.05,42.95,0)" xlink:href="#s"/></g><path fill="#3a414a" d="M30 0v-248h187v28H63v79h144v27H63v87h162V0H30" id="u"/><path fill="#3a414a" d="M135-143c-3-34-86-38-87 0 15 53 115 12 119 90S17 21 10-45l28-5c4 36 97 45 98 0-10-56-113-15-118-90-4-57 82-63 122-42 12 7 21 19 24 35" id="v"/><path fill="#3a414a" d="M114-163C36-179 61-72 57 0H25l-1-190h30c1 12-1 29 2 39 6-27 23-49 58-41v29" id="w"/><path fill="#3a414a" d="M100-194c62-1 85 37 85 99 1 63-27 99-86 99S16-35 15-95c0-66 28-99 85-99zM99-20c44 1 53-31 53-75 0-43-8-75-51-75s-53 32-53 75 10 74 51 75" id="x"/><g id="b"><use transform="matrix(0.05,0,0,0.05,0,0)" xlink:href="#u"/><use transform="matrix(0.05,0,0,0.05,12,0)" xlink:href="#v"/><use transform="matrix(0.05,0,0,0.05,21,0)" xlink:href="#r"/><use transform="matrix(0.05,0,0,0.05,26,0)" xlink:href="#s"/><use transform="matrix(0.05,0,0,0.05,36,0)" xlink:href="#w"/><use transform="matrix(0.05,0,0,0.05,41.95,0)" xlink:href="#t"/><use transform="matrix(0.05,0,0,0.05,51.95,0)" xlink:href="#x"/></g><g id="c"><use transform="matrix(0.05,0,0,0.05,0,0)" xlink:href="#t"/><use transform="matrix(0.05,0,0,0.05,10,0)" xlink:href="#x"/><use transform="matrix(0.05,0,0,0.05,20,0)" xlink:href="#t"/></g><path fill="#3a414a" d="M233-177c-1 41-23 64-60 70L243 0h-38l-65-103H63V0H30v-248c88 3 205-21 203 71zM63-129c60-2 137 13 137-47 0-61-80-42-137-45v92" id="y"/><path fill="#3a414a" d="M177-190C167-65 218 103 67 71c-23-6-38-20-44-43l32-5c15 47 100 32 89-28v-30C133-14 115 1 83 1 29 1 15-40 15-95c0-56 16-97 71-98 29-1 48 16 59 35 1-10 0-23 2-32h30zM94-22c36 0 50-32 50-73 0-42-14-75-50-75-39 0-46 34-46 75s6 73 46 73" id="z"/><path fill="#3a414a" d="M24-231v-30h32v30H24zM24 0v-190h32V0H24" id="A"/><path fill="#3a414a" d="M141-36C126-15 110 5 73 4 37 3 15-17 15-53c-1-64 63-63 125-63 3-35-9-54-41-54-24 1-41 7-42 31l-33-3c5-37 33-52 76-52 45 0 72 20 72 64v82c-1 20 7 32 28 27v20c-31 9-61-2-59-35zM48-53c0 20 12 33 32 33 41-3 63-29 60-74-43 2-92-5-92 41" id="B"/><g id="d"><use transform="matrix(0.05,0,0,0.05,0,0)" xlink:href="#y"/><use transform="matrix(0.05,0,0,0.05,12.950000000000001,0)" xlink:href="#s"/><use transform="matrix(0.05,0,0,0.05,22.950000000000003,0)" xlink:href="#z"/><use transform="matrix(0.05,0,0,0.05,32.95,0)" xlink:href="#A"/><use transform="matrix(0.05,0,0,0.05,36.900000000000006,0)" xlink:href="#v"/><use transform="matrix(0.05,0,0,0.05,45.900000000000006,0)" xlink:href="#r"/><use transform="matrix(0.05,0,0,0.05,50.900000000000006,0)" xlink:href="#w"/><use transform="matrix(0.05,0,0,0.05,56.85,0)" xlink:href="#B"/><use transform="matrix(0.05,0,0,0.05,66.85000000000001,0)" xlink:href="#r"/><use transform="matrix(0.05,0,0,0.05,71.85000000000001,0)" xlink:href="#x"/></g><path d="M205 0l-28-72H64L36 0H1l101-248h38L239 0h-34zm-38-99l-47-123c-12 45-31 82-46 123h93" id="C"/><path d="M96-169c-40 0-48 33-48 73s9 75 48 75c24 0 41-14 43-38l32 2c-6 37-31 61-74 61-59 0-76-41-82-99-10-93 101-131 147-64 4 7 5 14 7 22l-32 3c-4-21-16-35-41-35" id="D"/><path d="M100-194c63 0 86 42 84 106H49c0 40 14 67 53 68 26 1 43-12 49-29l28 8c-11 28-37 45-77 45C44 4 14-33 15-96c1-61 26-98 85-98zm52 81c6-60-76-77-97-28-3 7-6 17-6 28h103" id="E"/><path d="M85-194c31 0 48 13 60 33l-1-100h32l1 261h-30c-2-10 0-23-3-31C134-8 116 4 85 4 32 4 16-35 15-94c0-66 23-100 70-100zm9 24c-40 0-46 34-46 75 0 40 6 74 45 74 42 0 51-32 51-76 0-42-9-74-50-73" id="F"/><path d="M24-231v-30h32v30H24zM24 0v-190h32V0H24" id="G"/><g id="e"><use transform="matrix(0.05,0,0,0.05,0,0)" xlink:href="#C"/><use transform="matrix(0.05,0,0,0.05,12,0)" xlink:href="#D"/><use transform="matrix(0.05,0,0,0.05,21,0)" xlink:href="#D"/><use transform="matrix(0.05,0,0,0.05,30,0)" xlink:href="#E"/><use transform="matrix(0.05,0,0,0.05,40,0)" xlink:href="#F"/><use transform="matrix(0.05,0,0,0.05,50,0)" xlink:href="#G"/></g><path d="M141-36C126-15 110 5 73 4 37 3 15-17 15-53c-1-64 63-63 125-63 3-35-9-54-41-54-24 1-41 7-42 31l-33-3c5-37 33-52 76-52 45 0 72 20 72 64v82c-1 20 7 32 28 27v20c-31 9-61-2-59-35zM48-53c0 20 12 33 32 33 41-3 63-29 60-74-43 2-92-5-92 41" id="H"/><use transform="matrix(0.05,0,0,0.05,0,0)" xlink:href="#H" id="f"/><path d="M143 4C61 4 22-44 18-125c-5-107 100-154 193-111 17 8 29 25 37 43l-32 9c-13-25-37-40-76-40-61 0-88 39-88 99 0 61 29 100 91 101 35 0 62-11 79-27v-45h-74v-28h105v86C228-13 192 4 143 4" id="I"/><path d="M24 0v-261h32V0H24" id="J"/><path d="M114-163C36-179 61-72 57 0H25l-1-190h30c1 12-1 29 2 39 6-27 23-49 58-41v29" id="K"/><g id="g"><use transform="matrix(0.05,0,0,0.05,0,0)" xlink:href="#I"/><use transform="matrix(0.05,0,0,0.05,14,0)" xlink:href="#H"/><use transform="matrix(0.05,0,0,0.05,24,0)" xlink:href="#J"/><use transform="matrix(0.05,0,0,0.05,27.950000000000003,0)" xlink:href="#J"/><use transform="matrix(0.05,0,0,0.05,31.899999999999995,0)" xlink:href="#E"/><use transform="matrix(0.05,0,0,0.05,41.9,0)" xlink:href="#K"/><use transform="matrix(0.05,0,0,0.05,47.85,0)" xlink:href="#G"/><use transform="matrix(0.05,0,0,0.05,51.800000000000004,0)" xlink:href="#H"/></g><path d="M135-143c-3-34-86-38-87 0 15 53 115 12 119 90S17 21 10-45l28-5c4 36 97 45 98 0-10-56-113-15-118-90-4-57 82-63 122-42 12 7 21 19 24 35" id="L"/><path d="M59-47c-2 24 18 29 38 22v24C64 9 27 4 27-40v-127H5v-23h24l9-43h21v43h35v23H59v120" id="M"/><g id="h"><use transform="matrix(0.05,0,0,0.05,0,0)" xlink:href="#J"/><use transform="matrix(0.05,0,0,0.05,3.95,0)" xlink:href="#G"/><use transform="matrix(0.05,0,0,0.05,7.9,0)" xlink:href="#L"/><use transform="matrix(0.05,0,0,0.05,16.9,0)" xlink:href="#M"/><use transform="matrix(0.05,0,0,0.05,21.9,0)" xlink:href="#H"/></g><path d="M30 0v-248h187v28H63v79h144v27H63v87h162V0H30" id="N"/><path d="M108 0H70L1-190h34L89-25l56-165h34" id="O"/><path d="M117-194c89-4 53 116 60 194h-32v-121c0-31-8-49-39-48C34-167 62-67 57 0H25l-1-190h30c1 10-1 24 2 32 11-22 29-35 61-36" id="P"/><g id="i"><use transform="matrix(0.05,0,0,0.05,0,0)" xlink:href="#N"/><use transform="matrix(0.05,0,0,0.05,12,0)" xlink:href="#O"/><use transform="matrix(0.05,0,0,0.05,21,0)" xlink:href="#E"/><use transform="matrix(0.05,0,0,0.05,31,0)" xlink:href="#P"/><use transform="matrix(0.05,0,0,0.05,41,0)" xlink:href="#M"/><use transform="matrix(0.05,0,0,0.05,46,0)" xlink:href="#G"/></g><path d="M63-220v92h138v28H63V0H30v-248h175v28H63" id="Q"/><path d="M84 4C-5 8 30-112 23-190h32v120c0 31 7 50 39 49 72-2 45-101 50-169h31l1 190h-30c-1-10 1-25-2-33-11 22-28 36-60 37" id="R"/><g id="j"><use transform="matrix(0.05,0,0,0.05,0,0)" xlink:href="#Q"/><use transform="matrix(0.05,0,0,0.05,10.950000000000001,0)" xlink:href="#R"/><use transform="matrix(0.05,0,0,0.05,20.950000000000003,0)" xlink:href="#M"/><use transform="matrix(0.05,0,0,0.05,25.950000000000003,0)" xlink:href="#R"/><use transform="matrix(0.05,0,0,0.05,35.95,0)" xlink:href="#K"/><use transform="matrix(0.05,0,0,0.05,41.900000000000006,0)" xlink:href="#G"/></g><use transform="matrix(0.05,0,0,0.05,0,0)" xlink:href="#H" id="k"/><path d="M212-179c-10-28-35-45-73-45-59 0-87 40-87 99 0 60 29 101 89 101 43 0 62-24 78-52l27 14C228-24 195 4 139 4 59 4 22-46 18-125c-6-104 99-153 187-111 19 9 31 26 39 46" id="S"/><path d="M100-194c62-1 85 37 85 99 1 63-27 99-86 99S16-35 15-95c0-66 28-99 85-99zM99-20c44 1 53-31 53-75 0-43-8-75-51-75s-53 32-53 75 10 74 51 75" id="T"/><g id="l"><use transform="matrix(0.05,0,0,0.05,0,0)" xlink:href="#S"/><use transform="matrix(0.05,0,0,0.05,12.950000000000001,0)" xlink:href="#T"/><use transform="matrix(0.05,0,0,0.05,22.950000000000003,0)" xlink:href="#P"/><use transform="matrix(0.05,0,0,0.05,32.95,0)" xlink:href="#M"/><use transform="matrix(0.05,0,0,0.05,37.95,0)" xlink:href="#H"/><use transform="matrix(0.05,0,0,0.05,47.95,0)" xlink:href="#M"/><use transform="matrix(0.05,0,0,0.05,52.95,0)" xlink:href="#M"/><use transform="matrix(0.05,0,0,0.05,57.95,0)" xlink:href="#G"/></g><use transform="matrix(0.05,0,0,0.05,0,0)" xlink:href="#E" id="m"/><path d="M240 0l2-218c-23 76-54 145-80 218h-23L58-218 59 0H30v-248h44l77 211c21-75 51-140 76-211h43V0h-30" id="U"/><path d="M210-169c-67 3-38 105-44 169h-31v-121c0-29-5-50-35-48C34-165 62-65 56 0H25l-1-190h30c1 10-1 24 2 32 10-44 99-50 107 0 11-21 27-35 58-36 85-2 47 119 55 194h-31v-121c0-29-5-49-35-48" id="V"/><path d="M115-194c53 0 69 39 70 98 0 66-23 100-70 100C84 3 66-7 56-30L54 0H23l1-261h32v101c10-23 28-34 59-34zm-8 174c40 0 45-34 45-75 0-40-5-75-45-74-42 0-51 32-51 76 0 43 10 73 51 73" id="W"/><g id="n"><use transform="matrix(0.05,0,0,0.05,0,0)" xlink:href="#U"/><use transform="matrix(0.05,0,0,0.05,14.950000000000001,0)" xlink:href="#E"/><use transform="matrix(0.05,0,0,0.05,24.950000000000003,0)" xlink:href="#V"/><use transform="matrix(0.05,0,0,0.05,39.900000000000006,0)" xlink:href="#W"/><use transform="matrix(0.05,0,0,0.05,49.900000000000006,0)" xlink:href="#K"/><use transform="matrix(0.05,0,0,0.05,55.85,0)" xlink:href="#G"/></g><g id="o"><use transform="matrix(0.05,0,0,0.05,0,0)" xlink:href="#F"/><use transform="matrix(0.05,0,0,0.05,10,0)" xlink:href="#E"/><use transform="matrix(0.05,0,0,0.05,20,0)" xlink:href="#J"/></g><path d="M127-220V0H93v-220H8v-28h204v28h-85" id="X"/><g id="p"><use transform="matrix(0.05,0,0,0.05,0,0)" xlink:href="#X"/><use transform="matrix(0.05,0,0,0.05,8.950000000000001,0)" xlink:href="#E"/><use transform="matrix(0.05,0,0,0.05,18.950000000000003,0)" xlink:href="#H"/><use transform="matrix(0.05,0,0,0.05,28.950000000000003,0)" xlink:href="#V"/></g></defs></g></svg>