<svg xmlns="http://www.w3.org/2000/svg" xmlns:xlink="http://www.w3.org/1999/xlink" xmlns:lucid="lucid" width="902.95" height="860"><g transform="translate(-478.025 -200)" lucid:page-tab-id="0_0"><path d="M919.75 239.75c0 10.9-8.84 19.75-19.75 19.75-10.9 0-19.75-8.84-19.75-19.75 0-10.9 8.84-19.75 19.75-19.75 10.9 0 19.75 8.84 19.75 19.75z" stroke="#3a414a" fill="#fff"/><path d="M900 259.5v47.3a27.6 27.6 0 0 0 4.28 14.76L940 378m-40-63.2L860 378m0-98.75h80" stroke="#3a414a" fill="none"/><path d="M860 228a8 8 0 0 1 8-8h64a8 8 0 0 1 8 8v164a8 8 0 0 1-8 8h-64a8 8 0 0 1-8-8z" fill="none"/><use xlink:href="#a" transform="matrix(1,0,0,1,780,378) translate(36.625 14.6)"/><use xlink:href="#b" transform="matrix(1,0,0,1,780,378) translate(94.575 14.6)"/><a xlink:href="http://Arcangelodj.it" target="_blank" transform="matrix(1,0,0,1,780,378)"><path class="lucid-link lucid-hotspot lucid-overlay-hotspot" fill-opacity="0" d="M94.58.2h108.8v21.6H94.58z"/></a><path d="M1099.75 399.75c0 10.9-8.84 19.75-19.75 19.75-10.9 0-19.75-8.84-19.75-19.75 0-10.9 8.84-19.75 19.75-19.75 10.9 0 19.75 8.84 19.75 19.75z" stroke="#3a414a" fill="#fff"/><path d="M1080 419.5v47.3a27.6 27.6 0 0 0 4.28 14.76L1120 538m-40-63.2l-40 63.2m0-98.75h80" stroke="#3a414a" fill="none"/><path d="M1040 388a8 8 0 0 1 8-8h64a8 8 0 0 1 8 8v164a8 8 0 0 1-8 8h-64a8 8 0 0 1-8-8z" fill="none"/><use xlink:href="#c" transform="matrix(1,0,0,1,960,538) translate(60.05 14.6)"/><use xlink:href="#d" transform="matrix(1,0,0,1,960,538) translate(118 14.6)"/><path d="M739.75 399.75c0 10.9-8.84 19.75-19.75 19.75-10.9 0-19.75-8.84-19.75-19.75 0-10.9 8.84-19.75 19.75-19.75 10.9 0 19.75 8.84 19.75 19.75z" stroke="#3a414a" fill="#fff"/><path d="M720 419.5v47.3a27.6 27.6 0 0 0 4.28 14.76L760 538m-40-63.2L680 538m0-98.75h80" stroke="#3a414a" fill="none"/><path d="M680 388a8 8 0 0 1 8-8h64a8 8 0 0 1 8 8v164a8 8 0 0 1-8 8h-64a8 8 0 0 1-8-8z" fill="none"/><use xlink:href="#c" transform="matrix(1,0,0,1,600,538) translate(19.625 14.6)"/><use xlink:href="#e" transform="matrix(1,0,0,1,600,538) translate(77.575 14.6)"/><use xlink:href="#f" transform="matrix(1,0,0,1,600,538) translate(138.525 14.6)"/><path d="M1299.75 639.75c0 10.9-8.84 19.75-19.75 19.75-10.9 0-19.75-8.84-19.75-19.75 0-10.9 8.84-19.75 19.75-19.75 10.9 0 19.75 8.84 19.75 19.75z" stroke="#3a414a" fill="#fff"/><path d="M1280 659.5v47.3a27.6 27.6 0 0 0 4.28 14.76L1320 778m-40-63.2l-40 63.2m0-98.75h80" stroke="#3a414a" fill="none"/><path d="M1240 628a8 8 0 0 1 8-8h64a8 8 0 0 1 8 8v164a8 8 0 0 1-8 8h-64a8 8 0 0 1-8-8z" fill="none"/><use xlink:href="#c" transform="matrix(1,0,0,1,1160,778) translate(41.07499999999999 14.4)"/><use xlink:href="#g" transform="matrix(1,0,0,1,1160,778) translate(99.02499999999999 14.4)"/><use xlink:href="#h" transform="matrix(1,0,0,1,1160,778) translate(165.975 14.4)"/><use xlink:href="#f" transform="matrix(1,0,0,1,1160,778) translate(79.07499999999999 36)"/><path d="M739.75 639.75c0 10.9-8.84 19.75-19.75 19.75-10.9 0-19.75-8.84-19.75-19.75 0-10.9 8.84-19.75 19.75-19.75 10.9 0 19.75 8.84 19.75 19.75z" stroke="#3a414a" fill="#fff"/><path d="M720 659.5v47.3a27.6 27.6 0 0 0 4.28 14.76L760 778m-40-63.2L680 778m0-98.75h80" stroke="#3a414a" fill="none"/><path d="M680 628a8 8 0 0 1 8-8h64a8 8 0 0 1 8 8v164a8 8 0 0 1-8 8h-64a8 8 0 0 1-8-8z" fill="none"/><use xlink:href="#i" transform="matrix(1,0,0,1,600,778) translate(48.14999999999999 14.6)"/><use xlink:href="#j" transform="matrix(1,0,0,1,600,778) translate(119 14.6)"/><use xlink:href="#k" transform="matrix(1,0,0,1,600,778) translate(147.95 14.6)"/><path d="M579.75 639.75c0 10.9-8.84 19.75-19.75 19.75-10.9 0-19.75-8.84-19.75-19.75 0-10.9 8.84-19.75 19.75-19.75 10.9 0 19.75 8.84 19.75 19.75z" stroke="#3a414a" fill="#fff"/><path d="M560 659.5v47.3a27.6 27.6 0 0 0 4.28 14.76L600 778m-40-63.2L520 778m0-98.75h80" stroke="#3a414a" fill="none"/><path d="M520 628a8 8 0 0 1 8-8h64a8 8 0 0 1 8 8v164a8 8 0 0 1-8 8h-64a8 8 0 0 1-8-8z" fill="none"/><use xlink:href="#l" transform="matrix(1,0,0,1,440,778) translate(60.025 14.6)"/><use xlink:href="#m" transform="matrix(1,0,0,1,440,778) translate(128.975 14.6)"/><path d="M1080 379v-89a10 10 0 0 0-10-10h-87" stroke="#3a414a" fill="none"/><path d="M1080.5 379.56l-.47-.06h-.53v-.5h1z" stroke="#3a414a" stroke-width=".05" fill="#3a414a"/><path d="M960.98 280l21.52-12.73v25.46z" stroke="#3a414a" fill="#fff"/><path d="M720 379v-89a10 10 0 0 1 10-10h87" stroke="#3a414a" fill="none"/><path d="M720.5 379.56l-.47-.06h-.53v-.5h1z" stroke="#3a414a" stroke-width=".05" fill="#3a414a"/><path d="M839.02 280l-21.52 12.73v-25.46z" stroke="#3a414a" fill="#fff"/><path d="M560 619V450a10 10 0 0 1 10-10h67" stroke="#3a414a" fill="none"/><path d="M560.5 619.56l-.47-.06h-.53v-.5h1z" stroke="#3a414a" stroke-width=".05" fill="#3a414a"/><path d="M659.02 440l-21.52 12.73v-25.46z" stroke="#3a414a" fill="#fff"/><path d="M720 619v-36" stroke="#3a414a" fill="none"/><path d="M720.5 619.56l-.47-.06h-.53v-.5h1z" stroke="#3a414a" stroke-width=".05" fill="#3a414a"/><path d="M720 560.98l12.73 21.52h-25.46zM739.75 879.75c0 10.9-8.84 19.75-19.75 19.75-10.9 0-19.75-8.84-19.75-19.75 0-10.9 8.84-19.75 19.75-19.75 10.9 0 19.75 8.84 19.75 19.75z" stroke="#3a414a" fill="#fff"/><path d="M720 899.5v47.3a27.6 27.6 0 0 0 4.28 14.76L760 1018m-40-63.2l-40 63.2m0-98.75h80" stroke="#3a414a" fill="none"/><path d="M680 868a8 8 0 0 1 8-8h64a8 8 0 0 1 8 8v164a8 8 0 0 1-8 8h-64a8 8 0 0 1-8-8z" fill="none"/><use xlink:href="#n" transform="matrix(1,0,0,1,600,1018) translate(59.64999999999999 14.6)"/><path d="M720 859v-36" stroke="#3a414a" fill="none"/><path d="M720.5 859.56l-.47-.06h-.53v-.5h1z" stroke="#3a414a" stroke-width=".05" fill="#3a414a"/><path d="M720 800.98l12.73 21.52h-25.46zM1099.75 639.75c0 10.9-8.84 19.75-19.75 19.75-10.9 0-19.75-8.84-19.75-19.75 0-10.9 8.84-19.75 19.75-19.75 10.9 0 19.75 8.84 19.75 19.75z" stroke="#3a414a" fill="#fff"/><path d="M1080 659.5v47.3a27.6 27.6 0 0 0 4.28 14.76L1120 778m-40-63.2l-40 63.2m0-98.75h80" stroke="#3a414a" fill="none"/><path d="M1040 628a8 8 0 0 1 8-8h64a8 8 0 0 1 8 8v164a8 8 0 0 1-8 8h-64a8 8 0 0 1-8-8z" fill="none"/><g><use xlink:href="#c" transform="matrix(1,0,0,1,960,778) translate(16.625 14.6)"/><use xlink:href="#g" transform="matrix(1,0,0,1,960,778) translate(74.575 14.6)"/><use xlink:href="#f" transform="matrix(1,0,0,1,960,778) translate(141.525 14.6)"/></g><path d="M1080 619v-36" stroke="#3a414a" fill="none"/><path d="M1080.5 619.56l-.47-.06h-.53v-.5h1z" stroke="#3a414a" stroke-width=".05" fill="#3a414a"/><path d="M1080 560.98l12.73 21.52h-25.46z" stroke="#3a414a" fill="#fff"/><path d="M1280 619V450a10 10 0 0 0-10-10h-107" stroke="#3a414a" fill="none"/><path d="M1280.5 619.56l-.47-.06h-.53v-.5h1z" stroke="#3a414a" stroke-width=".05" fill="#3a414a"/><path d="M1140.98 440l21.52-12.73v25.46z" stroke="#3a414a" fill="#fff"/><defs><path fill="#3a414a" d="M232-93c-1 65-40 97-104 97C67 4 28-28 28-90v-158h33c8 89-33 224 67 224 102 0 64-133 71-224h33v155" id="o"/><path fill="#3a414a" d="M59-47c-2 24 18 29 38 22v24C64 9 27 4 27-40v-127H5v-23h24l9-43h21v43h35v23H59v120" id="p"/><path fill="#3a414a" d="M100-194c63 0 86 42 84 106H49c0 40 14 67 53 68 26 1 43-12 49-29l28 8c-11 28-37 45-77 45C44 4 14-33 15-96c1-61 26-98 85-98zm52 81c6-60-76-77-97-28-3 7-6 17-6 28h103" id="q"/><path fill="#3a414a" d="M117-194c89-4 53 116 60 194h-32v-121c0-31-8-49-39-48C34-167 62-67 57 0H25l-1-190h30c1 10-1 24 2 32 11-22 29-35 61-36" id="r"/><g id="a"><use transform="matrix(0.05,0,0,0.05,0,0)" xlink:href="#o"/><use transform="matrix(0.05,0,0,0.05,12.950000000000001,0)" xlink:href="#p"/><use transform="matrix(0.05,0,0,0.05,17.950000000000003,0)" xlink:href="#q"/><use transform="matrix(0.05,0,0,0.05,27.950000000000003,0)" xlink:href="#r"/><use transform="matrix(0.05,0,0,0.05,37.95,0)" xlink:href="#p"/><use transform="matrix(0.05,0,0,0.05,42.95,0)" xlink:href="#q"/></g><path fill="#3a414a" d="M205 0l-28-72H64L36 0H1l101-248h38L239 0h-34zm-38-99l-47-123c-12 45-31 82-46 123h93" id="s"/><path fill="#3a414a" d="M114-163C36-179 61-72 57 0H25l-1-190h30c1 12-1 29 2 39 6-27 23-49 58-41v29" id="t"/><path fill="#3a414a" d="M96-169c-40 0-48 33-48 73s9 75 48 75c24 0 41-14 43-38l32 2c-6 37-31 61-74 61-59 0-76-41-82-99-10-93 101-131 147-64 4 7 5 14 7 22l-32 3c-4-21-16-35-41-35" id="u"/><path fill="#3a414a" d="M141-36C126-15 110 5 73 4 37 3 15-17 15-53c-1-64 63-63 125-63 3-35-9-54-41-54-24 1-41 7-42 31l-33-3c5-37 33-52 76-52 45 0 72 20 72 64v82c-1 20 7 32 28 27v20c-31 9-61-2-59-35zM48-53c0 20 12 33 32 33 41-3 63-29 60-74-43 2-92-5-92 41" id="v"/><path fill="#3a414a" d="M177-190C167-65 218 103 67 71c-23-6-38-20-44-43l32-5c15 47 100 32 89-28v-30C133-14 115 1 83 1 29 1 15-40 15-95c0-56 16-97 71-98 29-1 48 16 59 35 1-10 0-23 2-32h30zM94-22c36 0 50-32 50-73 0-42-14-75-50-75-39 0-46 34-46 75s6 73 46 73" id="w"/><path fill="#3a414a" d="M24 0v-261h32V0H24" id="x"/><path fill="#3a414a" d="M100-194c62-1 85 37 85 99 1 63-27 99-86 99S16-35 15-95c0-66 28-99 85-99zM99-20c44 1 53-31 53-75 0-43-8-75-51-75s-53 32-53 75 10 74 51 75" id="y"/><path fill="#3a414a" d="M85-194c31 0 48 13 60 33l-1-100h32l1 261h-30c-2-10 0-23-3-31C134-8 116 4 85 4 32 4 16-35 15-94c0-66 23-100 70-100zm9 24c-40 0-46 34-46 75 0 40 6 74 45 74 42 0 51-32 51-76 0-42-9-74-50-73" id="z"/><path fill="#3a414a" d="M24-231v-30h32v30H24zM-9 49c24 4 33-6 33-30v-209h32V24c2 40-23 58-65 49V49" id="A"/><path fill="#3a414a" d="M33 0v-38h34V0H33" id="B"/><path fill="#3a414a" d="M24-231v-30h32v30H24zM24 0v-190h32V0H24" id="C"/><g id="b"><use transform="matrix(0.05,0,0,0.05,0,0)" xlink:href="#s"/><use transform="matrix(0.05,0,0,0.05,12,0)" xlink:href="#t"/><use transform="matrix(0.05,0,0,0.05,17.95,0)" xlink:href="#u"/><use transform="matrix(0.05,0,0,0.05,26.950000000000003,0)" xlink:href="#v"/><use transform="matrix(0.05,0,0,0.05,36.95,0)" xlink:href="#r"/><use transform="matrix(0.05,0,0,0.05,46.95,0)" xlink:href="#w"/><use transform="matrix(0.05,0,0,0.05,56.95,0)" xlink:href="#q"/><use transform="matrix(0.05,0,0,0.05,66.95,0)" xlink:href="#x"/><use transform="matrix(0.05,0,0,0.05,70.9,0)" xlink:href="#y"/><use transform="matrix(0.05,0,0,0.05,80.9,0)" xlink:href="#z"/><use transform="matrix(0.05,0,0,0.05,90.9,0)" xlink:href="#A"/><use transform="matrix(0.05,0,0,0.05,94.85000000000001,0)" xlink:href="#B"/><use transform="matrix(0.05,0,0,0.05,99.85000000000001,0)" xlink:href="#C"/><use transform="matrix(0.05,0,0,0.05,103.80000000000001,0)" xlink:href="#p"/><path fill="#8080ff" d="M-.9 1.25h110.6v1.32H-.9z"/></g><g id="c"><use transform="matrix(0.05,0,0,0.05,0,0)" xlink:href="#o"/><use transform="matrix(0.05,0,0,0.05,12.950000000000001,0)" xlink:href="#p"/><use transform="matrix(0.05,0,0,0.05,17.950000000000003,0)" xlink:href="#q"/><use transform="matrix(0.05,0,0,0.05,27.950000000000003,0)" xlink:href="#r"/><use transform="matrix(0.05,0,0,0.05,37.95,0)" xlink:href="#p"/><use transform="matrix(0.05,0,0,0.05,42.95,0)" xlink:href="#q"/></g><path fill="#3a414a" d="M30 0v-248h187v28H63v79h144v27H63v87h162V0H30" id="D"/><path fill="#3a414a" d="M135-143c-3-34-86-38-87 0 15 53 115 12 119 90S17 21 10-45l28-5c4 36 97 45 98 0-10-56-113-15-118-90-4-57 82-63 122-42 12 7 21 19 24 35" id="E"/><g id="d"><use transform="matrix(0.05,0,0,0.05,0,0)" xlink:href="#D"/><use transform="matrix(0.05,0,0,0.05,12,0)" xlink:href="#E"/><use transform="matrix(0.05,0,0,0.05,21,0)" xlink:href="#p"/><use transform="matrix(0.05,0,0,0.05,26,0)" xlink:href="#q"/><use transform="matrix(0.05,0,0,0.05,36,0)" xlink:href="#t"/><use transform="matrix(0.05,0,0,0.05,41.95,0)" xlink:href="#r"/><use transform="matrix(0.05,0,0,0.05,51.95,0)" xlink:href="#y"/></g><path fill="#3a414a" d="M33 0v-248h34V0H33" id="F"/><g id="e"><use transform="matrix(0.05,0,0,0.05,0,0)" xlink:href="#F"/><use transform="matrix(0.05,0,0,0.05,5,0)" xlink:href="#r"/><use transform="matrix(0.05,0,0,0.05,15,0)" xlink:href="#p"/><use transform="matrix(0.05,0,0,0.05,20,0)" xlink:href="#q"/><use transform="matrix(0.05,0,0,0.05,30,0)" xlink:href="#t"/><use transform="matrix(0.05,0,0,0.05,35.95,0)" xlink:href="#r"/><use transform="matrix(0.05,0,0,0.05,45.95,0)" xlink:href="#y"/></g><path fill="#3a414a" d="M233-177c-1 41-23 64-60 70L243 0h-38l-65-103H63V0H30v-248c88 3 205-21 203 71zM63-129c60-2 137 13 137-47 0-61-80-42-137-45v92" id="G"/><g id="f"><use transform="matrix(0.05,0,0,0.05,0,0)" xlink:href="#G"/><use transform="matrix(0.05,0,0,0.05,12.950000000000001,0)" xlink:href="#q"/><use transform="matrix(0.05,0,0,0.05,22.950000000000003,0)" xlink:href="#w"/><use transform="matrix(0.05,0,0,0.05,32.95,0)" xlink:href="#C"/><use transform="matrix(0.05,0,0,0.05,36.900000000000006,0)" xlink:href="#E"/><use transform="matrix(0.05,0,0,0.05,45.900000000000006,0)" xlink:href="#p"/><use transform="matrix(0.05,0,0,0.05,50.900000000000006,0)" xlink:href="#t"/><use transform="matrix(0.05,0,0,0.05,56.85,0)" xlink:href="#v"/><use transform="matrix(0.05,0,0,0.05,66.85000000000001,0)" xlink:href="#p"/><use transform="matrix(0.05,0,0,0.05,71.85000000000001,0)" xlink:href="#y"/></g><g id="g"><use transform="matrix(0.05,0,0,0.05,0,0)" xlink:href="#D"/><use transform="matrix(0.05,0,0,0.05,12,0)" xlink:href="#E"/><use transform="matrix(0.05,0,0,0.05,21,0)" xlink:href="#p"/><use transform="matrix(0.05,0,0,0.05,26,0)" xlink:href="#q"/><use transform="matrix(0.05,0,0,0.05,36,0)" xlink:href="#t"/><use transform="matrix(0.05,0,0,0.05,41.95,0)" xlink:href="#r"/><use transform="matrix(0.05,0,0,0.05,51.95,0)" xlink:href="#y"/></g><path fill="#3a414a" d="M190 0L58-211 59 0H30v-248h39L202-35l-2-213h31V0h-41" id="H"/><g id="h"><use transform="matrix(0.05,0,0,0.05,0,0)" xlink:href="#H"/><use transform="matrix(0.05,0,0,0.05,12.950000000000001,0)" xlink:href="#y"/><use transform="matrix(0.05,0,0,0.05,22.950000000000003,0)" xlink:href="#r"/></g><path fill="#3a414a" d="M240 0l2-218c-23 76-54 145-80 218h-23L58-218 59 0H30v-248h44l77 211c21-75 51-140 76-211h43V0h-30" id="I"/><path fill="#3a414a" d="M210-169c-67 3-38 105-44 169h-31v-121c0-29-5-50-35-48C34-165 62-65 56 0H25l-1-190h30c1 10-1 24 2 32 10-44 99-50 107 0 11-21 27-35 58-36 85-2 47 119 55 194h-31v-121c0-29-5-49-35-48" id="J"/><path fill="#3a414a" d="M115-194c53 0 69 39 70 98 0 66-23 100-70 100C84 3 66-7 56-30L54 0H23l1-261h32v101c10-23 28-34 59-34zm-8 174c40 0 45-34 45-75 0-40-5-75-45-74-42 0-51 32-51 76 0 43 10 73 51 73" id="K"/><g id="i"><use transform="matrix(0.05,0,0,0.05,0,0)" xlink:href="#I"/><use transform="matrix(0.05,0,0,0.05,14.950000000000001,0)" xlink:href="#q"/><use transform="matrix(0.05,0,0,0.05,24.950000000000003,0)" xlink:href="#J"/><use transform="matrix(0.05,0,0,0.05,39.900000000000006,0)" xlink:href="#K"/><use transform="matrix(0.05,0,0,0.05,49.900000000000006,0)" xlink:href="#t"/><use transform="matrix(0.05,0,0,0.05,55.85,0)" xlink:href="#y"/></g><g id="j"><use transform="matrix(0.05,0,0,0.05,0,0)" xlink:href="#z"/><use transform="matrix(0.05,0,0,0.05,10,0)" xlink:href="#q"/><use transform="matrix(0.05,0,0,0.05,20,0)" xlink:href="#x"/></g><path fill="#3a414a" d="M127-220V0H93v-220H8v-28h204v28h-85" id="L"/><g id="k"><use transform="matrix(0.05,0,0,0.05,0,0)" xlink:href="#L"/><use transform="matrix(0.05,0,0,0.05,8.950000000000001,0)" xlink:href="#q"/><use transform="matrix(0.05,0,0,0.05,18.950000000000003,0)" xlink:href="#v"/><use transform="matrix(0.05,0,0,0.05,28.950000000000003,0)" xlink:href="#J"/></g><path fill="#3a414a" d="M143 4C61 4 22-44 18-125c-5-107 100-154 193-111 17 8 29 25 37 43l-32 9c-13-25-37-40-76-40-61 0-88 39-88 99 0 61 29 100 91 101 35 0 62-11 79-27v-45h-74v-28h105v86C228-13 192 4 143 4" id="M"/><g id="l"><use transform="matrix(0.05,0,0,0.05,0,0)" xlink:href="#M"/><use transform="matrix(0.05,0,0,0.05,14,0)" xlink:href="#q"/><use transform="matrix(0.05,0,0,0.05,24,0)" xlink:href="#E"/><use transform="matrix(0.05,0,0,0.05,33,0)" xlink:href="#p"/><use transform="matrix(0.05,0,0,0.05,38,0)" xlink:href="#y"/><use transform="matrix(0.05,0,0,0.05,48,0)" xlink:href="#t"/><use transform="matrix(0.05,0,0,0.05,53.95,0)" xlink:href="#q"/></g><path fill="#3a414a" d="M137 0h-34L2-248h35l83 218 83-218h36" id="N"/><path fill="#3a414a" d="M84 4C-5 8 30-112 23-190h32v120c0 31 7 50 39 49 72-2 45-101 50-169h31l1 190h-30c-1-10 1-25-2-33-11 22-28 36-60 37" id="O"/><g id="m"><use transform="matrix(0.05,0,0,0.05,0,0)" xlink:href="#N"/><use transform="matrix(0.05,0,0,0.05,11,0)" xlink:href="#q"/><use transform="matrix(0.05,0,0,0.05,21,0)" xlink:href="#r"/><use transform="matrix(0.05,0,0,0.05,31,0)" xlink:href="#O"/><use transform="matrix(0.05,0,0,0.05,41,0)" xlink:href="#q"/></g><g id="n"><use transform="matrix(0.05,0,0,0.05,0,0)" xlink:href="#s"/><use transform="matrix(0.05,0,0,0.05,12,0)" xlink:href="#J"/><use transform="matrix(0.05,0,0,0.05,26.950000000000003,0)" xlink:href="#J"/><use transform="matrix(0.05,0,0,0.05,41.900000000000006,0)" xlink:href="#C"/><use transform="matrix(0.05,0,0,0.05,45.85000000000001,0)" xlink:href="#r"/><use transform="matrix(0.05,0,0,0.05,55.85,0)" xlink:href="#C"/><use transform="matrix(0.05,0,0,0.05,59.80000000000001,0)" xlink:href="#E"/><use transform="matrix(0.05,0,0,0.05,68.80000000000001,0)" xlink:href="#p"/><use transform="matrix(0.05,0,0,0.05,73.80000000000001,0)" xlink:href="#t"/><use transform="matrix(0.05,0,0,0.05,79.75000000000001,0)" xlink:href="#v"/><use transform="matrix(0.05,0,0,0.05,89.75000000000001,0)" xlink:href="#p"/><use transform="matrix(0.05,0,0,0.05,94.75000000000001,0)" xlink:href="#y"/><use transform="matrix(0.05,0,0,0.05,104.75,0)" xlink:href="#t"/><use transform="matrix(0.05,0,0,0.05,110.7,0)" xlink:href="#q"/></g></defs></g></svg>